<mxfile host="app.diagrams.net" modified="2024-05-06T11:51:53.217Z" agent="Mozilla/5.0 (X11; Ubuntu; Linux x86_64; rv:124.0) Gecko/20100101 Firefox/124.0" version="24.2.5" etag="HZ9FE85D15sllJ7g6NW6" type="github">
  <diagram name="Page-1" id="z47NI9-2rh-L5sm7_WJ_">
    <mxGraphModel>
      <root>
        <mxCell id="0" />
        <mxCell id="1" parent="0" />
      </root>
    </mxGraphModel>
  </diagram>
</mxfile>
